<svg class="svg-icon" style="width: 500px; height: 500px;vertical-align: middle;fill: white; background:#455A64; overflow: hidden;" viewBox="0 0 1024 1024" version="1.1" xmlns="http://www.w3.org/2000/svg">
  <path d="M357.312 438.656 337.6 386.944 169.984 386.944 150.336 439.808c-7.68 20.608-14.272 34.56-19.712 41.728C125.184 488.832 116.224 492.352 103.872 492.352c-10.496 0-19.776-3.84-27.84-11.52S64 464.512 64 454.72c0-5.632 0.896-11.456 2.752-17.472 1.856-5.952 4.992-14.336 9.344-25.024l105.408-267.776c3.008-7.68 6.656-16.96 10.88-27.712 4.16-10.816 8.704-19.776 13.504-26.88C210.624 82.816 216.96 77.056 224.704 72.64c7.808-4.352 17.344-6.656 28.8-6.656 11.648 0 21.376 2.24 29.12 6.656C290.432 77.056 296.704 82.752 301.504 89.6 306.24 96.64 310.336 104.064 313.536 112c3.328 8 7.424 18.624 12.544 31.936l107.712 266.048C442.24 430.272 446.528 444.992 446.528 454.144c0 9.6-3.968 18.368-12.032 26.304-7.936 8-17.536 11.968-28.8 11.968-6.592 0-12.16-1.152-16.896-3.52C384.128 486.592 380.16 483.392 377.024 479.296c-3.2-3.968-6.656-10.176-10.24-18.56C363.072 452.416 359.936 445.056 357.312 438.656zM191.936 324.224l123.2 0L252.992 154.048 191.936 324.224zM821.504 960l-126.016 0c-18.176 0-31.168-4.032-38.912-12.224-7.808-8.128-11.712-21.12-11.712-38.912L644.864 598.848c0-18.176 3.968-31.232 11.968-39.232 8-7.936 20.864-11.968 38.656-11.968l133.568 0c19.776 0 36.736 1.28 51.264 3.712 14.4 2.432 27.328 7.104 38.72 14.016 9.728 5.888 18.368 13.184 25.856 22.144 7.488 8.896 13.248 18.752 17.216 29.504 3.968 10.816 5.952 22.208 5.952 34.176 0 41.28-20.672 71.424-61.888 90.56 54.144 17.28 81.28 50.816 81.28 100.672 0 23.04-5.888 43.84-17.728 62.336-11.776 18.432-27.776 32.128-47.744 40.896-12.608 5.312-27.008 9.024-43.392 11.136C862.336 958.912 843.264 960 821.504 960zM728.448 610.368l0 106.624 76.48 0c20.736 0 36.864-1.984 48.192-5.888 11.392-3.968 19.968-11.456 26.048-22.528 4.608-7.872 6.976-16.704 6.976-26.496 0-20.736-7.424-34.624-22.272-41.408-14.784-6.848-37.376-10.304-67.776-10.304L728.448 610.368zM815.296 776.896l-86.848 0 0 120.384 89.664 0c56.448 0 84.672-20.288 84.672-60.992 0-20.8-7.36-35.904-22.016-45.248S844.352 776.896 815.296 776.896zM928.32 213.184l-141.376-141.376c-10.24-10.368-27.008-10.368-37.376 0-10.368 10.432-10.368 27.2 0 37.568l84.416 84.416c-3.776-0.064-6.848-0.32-10.816-0.32-23.552 0.192-51.2 2.304-80.256 9.344-28.928 6.976-59.648 19.52-84.928 40C645.056 252.8 634.56 264.832 624.96 277.952 617.344 289.28 608.704 304.064 603.904 317.44c-10.816 27.072-14.656 53.824-14.72 76.352C588.928 439.04 599.552 467.008 599.552 467.008s-6.4-29.44 0.128-72.32c3.136-21.312 10.432-45.44 23.488-67.968 6.464-11.712 13.568-20.8 23.68-32.128 8.96-8.896 19.008-18.048 30.4-24.512 22.528-13.696 48.64-20.672 73.536-23.296 25.088-2.688 49.088-1.344 69.376 1.152 11.776 1.408 21.888 3.264 30.912 5.248L749.568 354.56c-10.368 10.368-10.368 27.136 0 37.568 5.12 5.184 11.904 7.744 18.624 7.744s13.632-2.56 18.752-7.744l141.376-141.376C938.688 240.384 938.688 223.488 928.32 213.184zM527.808 773.376 386.432 632c-5.12-5.248-12.032-7.744-18.752-7.744S354.176 626.752 349.056 632c-10.368 10.368-10.368 27.136 0 37.504l99.008 99.008c-11.264 1.6-23.808 3.2-38.912 4.416-47.616 3.584-115.008 4.864-170.688-22.016-13.696-6.848-25.728-15.808-36.48-26.112-10.624-11.712-20.288-23.616-27.776-36.48-15.744-25.792-25.728-53.312-32.064-77.376C129.408 562.496 129.472 528.256 129.472 528.256s-4.48 33.728 1.92 84.736c3.328 25.408 9.856 55.232 23.232 85.504 6.592 15.488 15.68 30.464 25.664 44.608 11.712 14.272 25.472 27.008 41.088 37.12 63.616 39.552 136.96 44.992 188.928 47.232 9.408 0.32 17.536 0.192 25.792 0.128l-87.104 87.104c-10.368 10.368-10.368 27.136 0 37.504s27.136 10.368 37.376 0l141.376-141.376C538.176 800.64 538.176 783.744 527.808 773.376z" />
</svg>